<?xml version="1.0" encoding="UTF-8" standalone="no"?>
<!DOCTYPE svg PUBLIC "-//W3C//DTD SVG 1.1//EN" "http://www.w3.org/Graphics/SVG/1.1/DTD/svg11.dtd">
<svg width="456" height="456" viewBox="0 0 456 456" fill="none" xmlns="http://www.w3.org/2000/svg">
<g clip-path="url(#clip0_1_2)">
<path d="M248.966 110.591C260.108 108.021 270.326 107.996 279.618 110.514C288.934 112.98 296.638 117.512 302.731 124.111C308.835 130.754 313.026 139.015 315.304 148.895C316.582 154.438 317.203 159.709 317.168 164.708C317.382 187.492 306.841 204.377 285.543 215.361C294.106 216.588 301.498 220.157 307.72 226.066C313.908 231.984 318.188 240.084 320.559 250.366C321.651 255.104 322.29 260.842 322.476 267.579C322.708 285.133 318.3 299.191 309.252 309.752C300.204 320.312 285.665 327.902 265.636 332.521L163.25 356.129C159.832 356.917 156.991 356.772 154.726 355.694C152.506 354.652 151.097 352.835 150.499 350.242C150.2 348.945 150.137 347.501 150.31 345.907C150.413 343.388 151.05 341.311 152.22 339.676C153.391 338.04 154.127 337.094 154.427 336.836C156.565 334.084 158.191 331.378 159.305 328.72C160.431 326.106 160.965 322.099 160.907 316.698L158.961 171.033C158.961 168.067 158.667 165.31 158.079 162.762C157.533 160.393 156.784 158.47 155.832 156.995C154.879 155.52 153.677 153.819 152.226 151.894C150.083 149.469 148.81 147.385 148.408 145.642C148.264 145.016 148.161 143.792 148.101 141.97C148.112 139.048 149.094 136.75 151.047 135.076C152.991 133.357 156.252 131.969 160.833 130.913L248.966 110.591ZM251.482 172.086C251.518 167.087 251.066 162.554 250.128 158.486C247.551 147.31 241.426 142.837 231.753 145.068L220.679 147.621L221.541 210.84L232.359 208.345C239.229 206.761 244.171 203.291 247.184 197.935C250.207 192.624 251.64 184.008 251.482 172.086ZM255.303 270.85C255.28 265.441 254.774 260.591 253.784 256.3C251.104 244.677 244.671 240.04 234.486 242.388L222.181 245.226L222.811 311.887L235.321 309.003C242.396 307.371 247.539 303.761 250.75 298.171C253.927 292.589 255.444 283.482 255.303 270.85Z" fill="#FDB62F"/>
<path d="M195.409 133.68H276.225V318.828H195.409V133.68Z" fill="#FDB62F"/>
<path d="M218.452 307.259C216.838 307.259 215.29 306.43 214.148 304.954C213.007 303.479 212.366 301.477 212.366 299.391V252.183H181.936C180.814 252.183 179.713 251.782 178.756 251.024C177.799 250.265 177.022 249.18 176.513 247.886C176.003 246.593 175.78 245.143 175.868 243.696C175.957 242.249 176.353 240.862 177.013 239.688L225.7 153.141C226.455 151.796 227.521 150.796 228.743 150.282C229.966 149.769 231.282 149.769 232.505 150.283C233.727 150.797 234.792 151.797 235.548 153.142C236.303 154.486 236.71 156.105 236.709 157.767V204.975H267.139C268.261 204.975 269.362 205.376 270.319 206.134C271.277 206.892 272.053 207.978 272.562 209.271C273.072 210.565 273.295 212.015 273.207 213.462C273.119 214.908 272.722 216.295 272.062 217.469L223.375 304.017C222.811 305.021 222.07 305.838 221.214 306.402C220.359 306.965 219.412 307.259 218.452 307.259Z" fill="white"/>
</g>
<defs>
<clipPath id="clip0_1_2">
<rect width="456" height="456" fill="white"/>
</clipPath>
</defs>
</svg>

