<svg xmlns="http://www.w3.org/2000/svg" width="512" height="512" viewBox="0 0 512 512" style="overflow: visible;" data-bbox="137.34826513635142 122.54403227154783 237.12092915538096 270.0725595172805"><rect data-uid="o_f68fkkc02_4" data-fl-background="" x="0" y="0" width="512" height="512" fill="#000000"></rect><g transform="matrix(0.9708998799324036, 0, 0, 0.9708998799324036, 7.449631690979004, -3.3549132347106934)" data-uid="o_f68fkkc02_5"><g fill="#fdb62f" transform="matrix(0.7773744463920593, 0, 0, 0.7773744463920593, 76.43708801269531, -37.76043701171875)" data-uid="o_f68fkkc02_6"><path text="B" fill="#fdb62f" space="preserve" text-anchor="middle" offset="0.5" font-scale="contain" font-size="48" font-family="Shrikhand" transform="matrix(3.196810245513916, -0.7371370196342468, 0.9640911817550659, 4.181063175201416, 246.2502899169922, 363.50341796875)" font-weight="400" font-style="normal" data-fl-textpath="" data-uid="o_f68fkkc02_7" d="M 8.956-31.97Q 12.216000000000001-31.97  14.636-30.98Q 17.066-30  18.336000000000002-28.3Q 19.605999999999998-26.59  19.605999999999998-24.38L 19.605999999999998-24.38Q 19.605999999999998-23.14  19.276-22.08L 19.276-22.08Q 17.876-17.23  11.256-15.94L 11.256-15.94Q 13.556000000000001-15.26  14.906000000000002-13.7Q 16.246-12.14  16.246-9.84L 16.246-9.84Q 16.246-8.78  15.866000000000003-7.34L 15.866000000000003-7.34Q 14.806000000000001-3.6  11.616-1.8Q 8.426000000000002 0  2.565999999999999 0L 2.565999999999999 0L-17.404 0Q-18.404 0-18.964-0.34Q-19.514-0.67-19.514-1.25L-19.514-1.25Q-19.514-1.54-19.364-1.87L-19.364-1.87Q-19.174-2.4-18.744-2.69Q-18.314-2.98 -18.214-3.02L-18.214-3.02Q-17.444-3.5 -16.964-4.01Q-16.483999999999998-4.51 -16.154-5.66L-16.154-5.66L-10.294-26.35Q-10.104-26.98 -10.104-27.55L-10.104-27.55Q-10.104-28.08 -10.274-28.44Q-10.443999999999999-28.8 -10.724-29.28L-10.724-29.28Q-11.164-29.9 -11.164-30.29L-11.164-30.29Q-11.164-30.43 -11.064-30.82L-11.064-30.82Q-10.873999999999999-31.44 -10.224-31.7Q-9.574-31.97 -8.234-31.97L-8.234-31.97L 8.956-31.97ZM 6.795999999999999-23.18Q 7.126000000000001-24.24  7.126000000000001-25.15L 7.126000000000001-25.15Q 7.126000000000001-27.65  4.295999999999999-27.65L 4.295999999999999-27.65L 2.1359999999999992-27.65L-0.4039999999999999-18.67L 1.7059999999999995-18.67Q 3.716000000000001-18.67  4.896000000000001-19.66Q 6.0760000000000005-20.64  6.795999999999999-23.18L 6.795999999999999-23.18ZM 3.2860000000000014-9.07Q 3.6260000000000012-10.22  3.6260000000000012-11.18L 3.6260000000000012-11.18Q 3.6260000000000012-13.78  0.6460000000000008-13.78L 0.6460000000000008-13.78L-1.7539999999999978-13.78L-4.484-4.32L-2.0440000000000005-4.32Q 0.0259999999999998-4.32  1.2759999999999998-5.35Q 2.516000000000002-6.38  3.2860000000000014-9.07L 3.2860000000000014-9.07Z"></path><path transform="matrix(0.5039106011390686, 0, 0, 1.154443621635437, 210.66490173339844, 237.6300048828125)" fill="#fdb62f" data-type="rect" data-x="0" data-y="0" data-width="100" data-height="100" d="M0 0H100 V100 H0 Z" data-uid="o_f68fkkc02_8"></path></g><g transform="matrix(2.9499104022979736, 0, 0, 3.813706874847412, 218.92279052734375, 147.20114135742188)" fill="rgba(255,255,255,1)" data-uid="o_f68fkkc02_9"><path fill="rgba(255,255,255,1)" d="M11 22a1 1 0 0 1-1-1v-6H5a1 1 0 0 1-.809-1.588l8-11A1 1 0 0 1 14 3v6h5a1 1 0 0 1 .809 1.588l-8 11A1 1 0 0 1 11 22Z" transform="matrix(1, 0, 0, 1, 0, 0)" data-uid="o_f68fkkc02_10"></path></g></g><path text="LowBank" fill="#ffffff" space="preserve" text-anchor="middle" offset="0.5" font-scale="contain" font-size="48" font-family="Bungee" transform="matrix(0.9708998799324036, 0, 0, 0.9708998799324036, 255.6990203857422, 305.5159606933594)" font-weight="400" font-style="normal" data-fl-textpath="" data-uid="o_f68fkkc02_11" d="M-95.738 0L-95.738 0L-120.16799999999999 0Q-121.078 0 -121.488-0.41Q-121.898-0.82 -121.898-1.73L-121.898-1.73L-121.898-32.83Q-121.898-33.74 -121.488-34.15Q-121.078-34.56 -120.16799999999999-34.56L-120.16799999999999-34.56L-112.728-34.56Q-111.818-34.56 -111.408-34.15Q-110.99799999999999-33.74 -110.99799999999999-32.83L-110.99799999999999-32.83L-110.99799999999999-9.07L-104.428-9.07L-104.428-16.85Q-104.428-17.76 -104.018-18.17Q-103.608-18.58 -102.698-18.58L-102.698-18.58L-95.738-18.58Q-94.828-18.58 -94.418-18.17Q-94.008-17.76 -94.008-16.85L-94.008-16.85L-94.008-1.73Q-94.008-0.82 -94.418-0.41Q-94.828 0 -95.738 0ZM-59.257999999999996-25.44L-59.257999999999996-9.07Q-59.257999999999996-6.86 -59.908-5.06Q-60.548-3.26 -62.208-1.99Q-63.867999999999995-0.72 -66.768 0Q-69.668 0.72 -74.138 0.72L-74.138 0.72Q-78.598 0.72 -81.52799999999999 0Q-84.458-0.72 -86.108-1.99Q-87.768-3.26 -88.41799999999999-5.06Q-89.068-6.86 -89.068-9.07L-89.068-9.07L-89.068-25.44Q-89.068-27.65 -88.41799999999999-29.45Q-87.768-31.25 -86.108-32.54Q-84.458-33.84 -81.52799999999999-34.56Q-78.598-35.28 -74.138-35.28L-74.138-35.28Q-69.668-35.28 -66.768-34.56Q-63.867999999999995-33.84 -62.208-32.54Q-60.548-31.25 -59.908-29.45Q-59.257999999999996-27.65 -59.257999999999996-25.44L-59.257999999999996-25.44ZM-78.168-23.71L-78.168-10.8Q-78.168-9.84 -77.448-9.19Q-76.728-8.54 -74.138-8.54L-74.138-8.54Q-71.548-8.54 -70.828-9.19Q-70.108-9.84 -70.108-10.8L-70.108-10.8L-70.108-23.71Q-70.108-24.62 -70.828-25.27Q-71.548-25.92 -74.138-25.92L-74.138-25.92Q-76.728-25.92 -77.448-25.27Q-78.168-24.62 -78.168-23.71L-78.168-23.71ZM-28.34200000000001-34.56L-28.34200000000001-34.56L-21.192000000000007-34.56Q-20.28200000000001-34.56 -19.872000000000007-34.15Q-19.46200000000001-33.74 -19.46200000000001-32.83L-19.46200000000001-32.83L-19.46200000000001-14.21Q-19.46200000000001-12.67 -19.582000000000008-11.35Q-19.702000000000005-10.03 -20.332000000000008-8.26L-20.332000000000008-8.26L-22.732000000000006-1.73Q-22.97200000000001-1.01 -23.42200000000001-0.5Q-23.882000000000005 0 -24.652000000000008 0L-24.652000000000008 0L-31.032000000000007 0Q-31.802000000000007 0 -32.42200000000001-0.34Q-33.05200000000001-0.67 -33.242000000000004-1.44L-33.242000000000004-1.44L-35.45200000000001-9.26Q-35.59200000000001-9.74 -35.81200000000001-9.91Q-36.022000000000006-10.08 -36.31200000000001-10.08L-36.31200000000001-10.08L-36.742000000000004-10.08Q-37.03200000000001-10.08 -37.25200000000001-9.91Q-37.462-9.74 -37.61200000000001-9.26L-37.61200000000001-9.26L-39.86200000000001-1.44Q-40.05200000000001-0.72 -40.58200000000001-0.36Q-41.11200000000001 0 -41.882000000000005 0L-41.882000000000005 0L-48.21200000000001 0Q-48.982000000000006 0 -49.53200000000001-0.48Q-50.092000000000006-0.96 -50.33200000000001-1.73L-50.33200000000001-1.73L-52.732000000000006-8.35Q-53.35200000000001-10.13 -53.47200000000001-11.45Q-53.592000000000006-12.77 -53.592000000000006-14.3L-53.592000000000006-14.3L-53.592000000000006-32.83Q-53.592000000000006-33.74 -53.18200000000001-34.15Q-52.772000000000006-34.56 -51.86200000000001-34.56L-51.86200000000001-34.56L-44.47200000000001-34.56Q-43.56200000000001-34.56 -43.15200000000001-34.15Q-42.742000000000004-33.74 -42.742000000000004-32.83L-42.742000000000004-32.83L-42.742000000000004-15.17L-39.962-21.22Q-39.57200000000001-22.03 -38.95200000000001-22.37Q-38.33200000000001-22.7 -37.412000000000006-22.7L-37.412000000000006-22.7L-35.40200000000001-22.7Q-34.492000000000004-22.7 -33.86200000000001-22.37Q-33.242000000000004-22.03 -32.852000000000004-21.22L-32.852000000000004-21.22L-30.07200000000001-15.17L-30.07200000000001-32.83Q-30.07200000000001-33.74 -29.66200000000001-34.15Q-29.25200000000001-34.56 -28.34200000000001-34.56ZM 6.885999999999996 0L 6.885999999999996 0L-11.544000000000004 0Q-12.454000000000004 0 -12.864000000000003-0.41Q-13.274000000000003-0.82 -13.274000000000003-1.73L-13.274000000000003-1.73L-13.274000000000003-32.83Q-13.274000000000003-33.74 -12.864000000000003-34.15Q-12.454000000000004-34.56 -11.544000000000004-34.56L-11.544000000000004-34.56L 3.7659999999999982-34.56Q 8.475999999999996-34.56  10.725999999999996-32.76Q 12.985999999999997-30.96  12.985999999999997-27.22L 12.985999999999997-27.22L 12.985999999999997-24.91Q 12.985999999999997-22.9  12.285999999999998-21.62Q 11.595999999999997-20.35  10.155999999999995-19.73L 10.155999999999995-19.73Q 13.225999999999996-19.44  14.715999999999998-17.62Q 16.195999999999998-15.79  16.195999999999998-12.29L 16.195999999999998-12.29L 16.195999999999998-7.87Q 16.195999999999998-3.84  13.915999999999997-1.92Q 11.635999999999996 0  6.885999999999996 0ZM 1.605999999999998-26.4L-2.4740000000000038-26.4L-2.4740000000000038-21.22L 1.605999999999998-21.22Q 2.5159999999999982-21.22  2.9759999999999955-21.7Q 3.4359999999999964-22.18  3.4359999999999964-23.14L 3.4359999999999964-23.14L 3.4359999999999964-24.48Q 3.4359999999999964-25.44  2.9759999999999955-25.92Q 2.5159999999999982-26.4  1.605999999999998-26.4L 1.605999999999998-26.4ZM 3.7659999999999982-13.82L-2.4740000000000038-13.82L-2.4740000000000038-8.16L 3.7659999999999982-8.16Q 4.675999999999998-8.16  5.135999999999996-8.64Q 5.5959999999999965-9.12  5.5959999999999965-10.08L 5.5959999999999965-10.08L 5.5959999999999965-11.95Q 5.5959999999999965-12.91  5.135999999999996-13.37Q 4.675999999999998-13.82  3.7659999999999982-13.82L 3.7659999999999982-13.82ZM 34.056000000000004-24.48L 34.056000000000004-24.48L 31.796000000000006-17.18L 39.336000000000006-17.18L 37.07600000000001-24.48Q 36.88600000000001-24.91  36.676-25.1Q 36.456-25.3  36.166000000000004-25.3L 36.166000000000004-25.3L 34.96600000000001-25.3Q 34.676-25.3  34.46600000000001-25.1Q 34.24600000000001-24.91  34.056000000000004-24.48ZM 31.316000000000003-8.45L 31.316000000000003-1.73Q 31.316000000000003-0.82  30.916000000000004-0.41Q 30.506000000000004 0  29.596000000000004 0L 29.596000000000004 0L 22.536000000000005 0Q 21.626000000000005 0  21.216000000000005-0.41Q 20.806000000000004-0.82  20.806000000000004-1.73L 20.806000000000004-1.73L 20.806000000000004-14.4Q 20.806000000000004-15.84  21.266000000000005-17.71Q 21.716000000000005-19.58  22.676000000000005-22.08L 22.676000000000005-22.08L 26.856000000000005-32.98Q 27.146000000000004-33.79  27.746000000000002-34.18Q 28.346000000000004-34.56  29.306000000000004-34.56L 29.306000000000004-34.56L 42.21600000000001-34.56Q 43.126000000000005-34.56  43.726000000000006-34.18Q 44.32600000000001-33.79  44.616-32.98L 44.616-32.98L 48.79600000000001-22.08Q 49.756-19.58  50.206-17.71Q 50.66600000000001-15.84  50.66600000000001-14.4L 50.66600000000001-14.4L 50.66600000000001-1.73Q 50.66600000000001-0.82  50.256-0.41Q 49.846000000000004 0  48.93600000000001 0L 48.93600000000001 0L 41.68600000000001 0Q 40.726000000000006 0  40.276-0.41Q 39.816-0.82  39.816-1.73L 39.816-1.73L 39.816-8.45L 31.316000000000003-8.45ZM 65.496 0L 65.496 0L 58.296 0Q 57.386 0  56.976-0.41Q 56.566-0.82  56.566-1.73L 56.566-1.73L 56.566-32.83Q 56.566-33.74  56.976-34.15Q 57.386-34.56  58.296-34.56L 58.296-34.56L 63.286-34.56Q 64.196-34.56  64.846-34.27Q 65.496-33.98  66.116-33.26L 66.116-33.26L 75.436-22.61L 75.436-32.83Q 75.436-33.74  75.836-34.15Q 76.246-34.56  77.156-34.56L 77.156-34.56L 84.356-34.56Q 85.27600000000001-34.56  85.676-34.15Q 86.086-33.74  86.086-32.83L 86.086-32.83L 86.086-1.73Q 86.086-0.82  85.676-0.41Q 85.27600000000001 0  84.356 0L 84.356 0L 77.156 0Q 76.246 0  75.836-0.41Q 75.436-0.82  75.436-1.73L 75.436-1.73L 75.436-7.63L 67.226-17.57L 67.226-1.73Q 67.226-0.82  66.816-0.41Q 66.406 0  65.496 0ZM 101.88000000000001 0L 101.88000000000001 0L 94.44000000000001 0Q 93.53 0  93.12-0.41Q 92.71000000000001-0.82  92.71000000000001-1.73L 92.71000000000001-1.73L 92.71000000000001-32.83Q 92.71000000000001-33.74  93.12-34.15Q 93.53-34.56  94.44000000000001-34.56L 94.44000000000001-34.56L 101.88000000000001-34.56Q 102.79-34.56  103.2-34.15Q 103.61000000000001-33.74  103.61000000000001-32.83L 103.61000000000001-32.83L 103.61000000000001-21.79L 105.53-21.79L 110.47-32.98Q 110.81-33.84  111.38000000000001-34.2Q 111.96000000000001-34.56  112.87-34.56L 112.87-34.56L 120.26-34.56Q 121.08000000000001-34.56  121.37-34.15Q 121.66-33.74  121.32000000000001-32.98L 121.32000000000001-32.98L 116.42-21.79Q 119.11000000000001-21.65  120.72-19.9Q 122.33000000000001-18.14  122.33000000000001-15.26L 122.33000000000001-15.26L 122.33000000000001-1.73Q 122.33000000000001-0.82  121.92000000000002-0.41Q 121.51 0  120.60000000000001 0L 120.60000000000001 0L 113.21000000000001 0Q 112.30000000000001 0  111.89-0.41Q 111.48-0.82  111.48-1.73L 111.48-1.73L 111.48-11.09Q 111.48-11.86  111.10000000000001-12.29Q 110.71000000000001-12.72  109.94-12.72L 109.94-12.72L 103.61000000000001-12.72L 103.61000000000001-1.73Q 103.61000000000001-0.82  103.2-0.41Q 102.79 0  101.88000000000001 0Z"></path><path text="Seu saldo sempre zerado" fill="#fdb62f" space="preserve" text-anchor="middle" offset="0.5" font-scale="contain" font-size="48" font-family="Changa" transform="matrix(0.4062533378601074, 0, 0, 0.4062533378601074, 255.6099853515625, 389.1634521484375)" font-weight="400" font-style="normal" data-fl-textpath="" data-uid="o_f68fkkc02_12" d="M-264.52600000000007-4.37Q-262.60600000000005-3.89 -260.03600000000006-3.58Q-257.47600000000006-3.26 -255.11600000000007-3.26L-255.11600000000007-3.26Q-252.67600000000007-3.26 -249.69600000000008-3.55L-249.69600000000008-3.55L-249.69600000000008-12.48L-254.25600000000009-12.82Q-258.6760000000001-13.15 -260.8760000000001-13.94Q-263.08600000000007-14.74 -263.97600000000006-16.44Q-264.8660000000001-18.14 -264.8660000000001-21.36L-264.8660000000001-21.36Q-264.8660000000001-24.82 -263.97600000000006-26.86Q-263.08600000000007-28.9 -261.09600000000006-29.81Q-259.10600000000005-30.72 -255.74600000000007-30.72L-255.74600000000007-30.72Q-250.89600000000007-30.72 -246.04600000000008-29.81L-246.04600000000008-29.81L-246.67600000000007-26.02Q-250.51600000000008-26.74 -255.45600000000007-26.74L-255.45600000000007-26.74Q-257.90600000000006-26.74 -259.6360000000001-26.5L-259.6360000000001-26.5L-259.6360000000001-17.47L-254.30600000000007-17.14Q-250.46600000000007-16.9 -248.35600000000008-16.01Q-246.23600000000008-15.12 -245.35600000000008-13.27Q-244.46600000000007-11.42 -244.46600000000007-8.16L-244.46600000000007-8.16Q-244.46600000000007-4.8 -245.51600000000008-2.88Q-246.57600000000008-0.96 -248.97600000000008-0.12Q-251.3760000000001 0.72 -255.55600000000007 0.72L-255.55600000000007 0.72Q-260.6360000000001 0.72 -265.2460000000001-0.43L-265.2460000000001-0.43L-264.52600000000007-4.37ZM-229.48400000000007-3.31Q-227.52400000000006-3.31 -225.64400000000006-3.58Q-223.77400000000006-3.84 -221.18400000000008-4.46L-221.18400000000008-4.46L-220.56400000000008-0.96Q-222.33400000000006-0.29 -224.95400000000006 0.1Q-227.56400000000008 0.48 -230.35400000000007 0.48L-230.35400000000007 0.48Q-234.09400000000008 0.48 -236.06400000000008-0.6Q-238.03400000000008-1.68 -238.84400000000008-4.32Q-239.66400000000007-6.96 -239.66400000000007-12L-239.66400000000007-12Q-239.66400000000007-16.85 -238.72400000000007-19.51Q-237.79400000000007-22.18 -235.63400000000007-23.33Q-233.47400000000007-24.48 -229.53400000000008-24.48L-229.53400000000008-24.48Q-225.64400000000006-24.48 -223.60400000000007-23.86Q-221.56400000000008-23.23 -220.75400000000008-21.72Q-219.93400000000008-20.21 -219.93400000000008-17.28L-219.93400000000008-17.28Q-219.93400000000008-13.78 -220.94400000000007-12.24Q-221.95400000000006-10.7 -224.90400000000005-10.18Q-227.85400000000007-9.65 -234.62400000000008-9.65L-234.62400000000008-9.65L-234.62400000000008-3.84Q-232.70400000000006-3.31 -229.48400000000007-3.31L-229.48400000000007-3.31ZM-230.64400000000006-20.54Q-232.94400000000007-20.54 -233.78400000000008-19.97Q-234.62400000000008-19.39 -234.62400000000008-17.76L-234.62400000000008-17.76L-234.62400000000008-12.77L-228.28400000000008-12.77Q-225.93400000000008-12.77 -225.09400000000008-13.34Q-224.25400000000008-13.92 -224.25400000000008-15.55L-224.25400000000008-15.55L-224.25400000000008-20.54L-230.64400000000006-20.54ZM-193.2460000000001-24L-193.2460000000001 0L-195.45600000000007 0L-196.75600000000009-2.4Q-198.67600000000007-0.91 -200.95600000000007-0.22Q-203.23600000000008 0.48 -206.1560000000001 0.48L-206.1560000000001 0.48Q-209.42600000000007 0.48 -210.95600000000007-0.74Q-212.49600000000007-1.97 -212.49600000000007-4.56L-212.49600000000007-4.56L-212.49600000000007-24L-207.69600000000008-24L-207.69600000000008-3.22L-202.1260000000001-3.22Q-199.77600000000007-3.22 -198.91600000000008-3.79Q-198.04600000000008-4.37 -198.04600000000008-6L-198.04600000000008-6L-198.04600000000008-24L-193.2460000000001-24ZM-174.23800000000008-17.57Q-174.23800000000008-21.26 -172.05800000000008-22.99Q-169.86800000000008-24.72 -165.1680000000001-24.72L-165.1680000000001-24.72Q-160.98800000000008-24.72 -157.1980000000001-23.66L-157.1980000000001-23.66L-157.86800000000008-20.16Q-159.0680000000001-20.5 -160.70800000000008-20.71Q-162.33800000000008-20.93 -163.7280000000001-20.93L-163.7280000000001-20.93Q-166.6080000000001-20.93 -169.1980000000001-20.5L-169.1980000000001-20.5L-169.1980000000001-14.83Q-163.43800000000007-14.02 -160.7280000000001-13.18Q-158.0180000000001-12.34 -157.0080000000001-10.92Q-155.99800000000008-9.5 -155.99800000000008-6.77L-155.99800000000008-6.77Q-155.99800000000008-4.03 -156.98800000000008-2.4Q-157.96800000000007-0.77 -160.17800000000008-0.02Q-162.3880000000001 0.72 -166.0780000000001 0.72L-166.0780000000001 0.72Q-170.20800000000008 0.72 -174.7680000000001-0.67L-174.7680000000001-0.67L-173.99800000000008-4.51Q-170.30800000000008-3.07 -166.12800000000007-3.07L-166.12800000000007-3.07Q-164.68800000000007-3.07 -163.58800000000008-3.22Q-162.4780000000001-3.36 -161.03800000000007-3.74L-161.03800000000007-3.74L-161.03800000000007-9.41Q-167.2280000000001-10.27 -169.86800000000008-11.09Q-172.5080000000001-11.9 -173.37800000000007-13.27Q-174.23800000000008-14.64 -174.23800000000008-17.57L-174.23800000000008-17.57ZM-140.5900000000001-24.48Q-137.2800000000001-24.48 -135.3600000000001-23.83Q-133.44000000000008-23.18 -132.60000000000008-21.72Q-131.7600000000001-20.26 -131.7600000000001-17.76L-131.7600000000001-17.76L-131.7600000000001 0L-133.97000000000008 0L-135.2600000000001-2.4Q-136.9900000000001-0.91 -139.0800000000001-0.22Q-141.1700000000001 0.48 -143.8600000000001 0.48L-143.8600000000001 0.48Q-147.8400000000001 0.48 -149.5200000000001-1.18Q-151.2000000000001-2.83 -151.2000000000001-6.72L-151.2000000000001-6.72Q-151.2000000000001-10.22 -150.2400000000001-11.76Q-149.2800000000001-13.3 -146.47000000000008-13.82Q-143.66000000000008-14.35 -137.2800000000001-14.35L-137.2800000000001-14.35L-136.5600000000001-14.35L-136.5600000000001-20.16Q-138.3400000000001-20.69 -141.41000000000008-20.69L-141.41000000000008-20.69Q-145.25000000000009-20.69 -149.5200000000001-19.54L-149.5200000000001-19.54L-150.1400000000001-23.04Q-148.3700000000001-23.66 -145.73000000000008-24.07Q-143.0900000000001-24.48 -140.5900000000001-24.48L-140.5900000000001-24.48ZM-140.4000000000001-3.22Q-138.1400000000001-3.22 -137.35000000000008-3.79Q-136.5600000000001-4.37 -136.5600000000001-6L-136.5600000000001-6L-136.5600000000001-11.23L-142.94000000000008-11.23Q-145.2000000000001-11.23 -146.0200000000001-10.66Q-146.8300000000001-10.08 -146.8300000000001-8.45L-146.8300000000001-8.45L-146.8300000000001-3.22L-140.4000000000001-3.22ZM-118.8000000000001-3.55Q-117.84000000000009-3.41 -116.59000000000009-3.31L-116.59000000000009-3.31L-116.8800000000001-0.05Q-118.6600000000001 0.48 -120.0500000000001 0.48L-120.0500000000001 0.48Q-121.87000000000009 0.48 -122.7400000000001-0.41Q-123.6000000000001-1.3 -123.6000000000001-3.12L-123.6000000000001-3.12L-123.6000000000001-31.2L-118.8000000000001-31.92L-118.8000000000001-3.55ZM-96.4820000000001-31.92L-91.6820000000001-32.5L-91.6820000000001 0L-93.8920000000001 0L-94.94200000000009-1.92Q-95.9020000000001-0.43 -97.7020000000001 0.14Q-99.5020000000001 0.72 -102.6720000000001 0.72L-102.6720000000001 0.72Q-106.5120000000001 0.72 -108.41200000000009-0.29Q-110.30200000000009-1.3 -111.05200000000009-3.94Q-111.7920000000001-6.58 -111.7920000000001-12L-111.7920000000001-12Q-111.7920000000001-17.09 -111.0720000000001-19.73Q-110.35200000000009-22.37 -108.5720000000001-23.42Q-106.80200000000009-24.48 -103.3420000000001-24.48L-103.3420000000001-24.48Q-100.8920000000001-24.48 -99.2420000000001-24.22Q-97.5820000000001-23.95 -96.4820000000001-23.33L-96.4820000000001-23.33L-96.4820000000001-31.92ZM-96.4820000000001-4.42L-96.4820000000001-20.54L-104.5420000000001-20.54Q-105.8420000000001-20.54 -106.2920000000001-20.3Q-106.7520000000001-20.06 -106.7520000000001-19.34L-106.7520000000001-19.34L-106.7520000000001-3.22L-98.69200000000009-3.22Q-97.3920000000001-3.22 -96.9320000000001-3.46Q-96.4820000000001-3.7 -96.4820000000001-4.42L-96.4820000000001-4.42ZM-74.0600000000001 0.48Q-78.3800000000001 0.48 -80.57000000000009-0.55Q-82.7500000000001-1.58 -83.6200000000001-4.22Q-84.4800000000001-6.86 -84.4800000000001-12L-84.4800000000001-12Q-84.4800000000001-17.14 -83.6200000000001-19.78Q-82.7500000000001-22.42 -80.57000000000009-23.45Q-78.3800000000001-24.48 -74.0600000000001-24.48L-74.0600000000001-24.48Q-69.7000000000001-24.48 -67.5400000000001-23.45Q-65.3800000000001-22.42 -64.5100000000001-19.8Q-63.6500000000001-17.18 -63.6500000000001-12L-63.6500000000001-12Q-63.6500000000001-6.86 -64.5100000000001-4.22Q-65.3800000000001-1.58 -67.5600000000001-0.55Q-69.7400000000001 0.48 -74.0600000000001 0.48L-74.0600000000001 0.48ZM-79.4900000000001-3.46L-70.9400000000001-3.46Q-69.5500000000001-3.46 -69.1000000000001-3.7Q-68.6400000000001-3.94 -68.6400000000001-4.66L-68.6400000000001-4.66L-68.6400000000001-20.54L-77.18000000000009-20.54Q-78.5800000000001-20.54 -79.0300000000001-20.3Q-79.4900000000001-20.06 -79.4900000000001-19.34L-79.4900000000001-19.34L-79.4900000000001-3.46ZM-46.0780000000001-17.57Q-46.0780000000001-21.26 -43.8980000000001-22.99Q-41.7080000000001-24.72 -37.0080000000001-24.72L-37.0080000000001-24.72Q-32.8280000000001-24.72 -29.0380000000001-23.66L-29.0380000000001-23.66L-29.7080000000001-20.16Q-30.9080000000001-20.5 -32.5480000000001-20.71Q-34.1780000000001-20.93 -35.5680000000001-20.93L-35.5680000000001-20.93Q-38.4480000000001-20.93 -41.038000000000096-20.5L-41.038000000000096-20.5L-41.038000000000096-14.83Q-35.2780000000001-14.02 -32.5680000000001-13.18Q-29.8580000000001-12.34 -28.8480000000001-10.92Q-27.8380000000001-9.5 -27.8380000000001-6.77L-27.8380000000001-6.77Q-27.8380000000001-4.03 -28.8280000000001-2.4Q-29.8080000000001-0.77 -32.0180000000001-0.02Q-34.2280000000001 0.72 -37.9180000000001 0.72L-37.9180000000001 0.72Q-42.0480000000001 0.72 -46.608000000000104-0.67L-46.608000000000104-0.67L-45.8380000000001-4.51Q-42.1480000000001-3.07 -37.9680000000001-3.07L-37.9680000000001-3.07Q-36.5280000000001-3.07 -35.4280000000001-3.22Q-34.3180000000001-3.36 -32.8780000000001-3.74L-32.8780000000001-3.74L-32.8780000000001-9.41Q-39.0680000000001-10.27 -41.7080000000001-11.09Q-44.3480000000001-11.9 -45.2180000000001-13.27Q-46.0780000000001-14.64 -46.0780000000001-17.57L-46.0780000000001-17.57ZM-12.620000000000099-3.31Q-10.6600000000001-3.31 -8.7800000000001-3.58Q-6.9100000000001-3.84 -4.3200000000001-4.46L-4.3200000000001-4.46L-3.7000000000000988-0.96Q-5.470000000000098-0.29 -8.0900000000001 0.1Q-10.700000000000099 0.48 -13.4900000000001 0.48L-13.4900000000001 0.48Q-17.2300000000001 0.48 -19.2000000000001-0.6Q-21.1700000000001-1.68 -21.9800000000001-4.32Q-22.8000000000001-6.96 -22.8000000000001-12L-22.8000000000001-12Q-22.8000000000001-16.85 -21.8600000000001-19.51Q-20.9300000000001-22.18 -18.7700000000001-23.33Q-16.6100000000001-24.48 -12.6700000000001-24.48L-12.6700000000001-24.48Q-8.7800000000001-24.48 -6.740000000000098-23.86Q-4.700000000000099-23.23 -3.8900000000001-21.72Q-3.0700000000000998-20.21 -3.0700000000000998-17.28L-3.0700000000000998-17.28Q-3.0700000000000998-13.78 -4.080000000000098-12.24Q-5.090000000000099-10.7 -8.040000000000099-10.18Q-10.9900000000001-9.65 -17.760000000000097-9.65L-17.760000000000097-9.65L-17.760000000000097-3.84Q-15.8400000000001-3.31 -12.620000000000099-3.31L-12.620000000000099-3.31ZM-13.780000000000099-20.54Q-16.080000000000098-20.54 -16.9200000000001-19.97Q-17.760000000000097-19.39 -17.760000000000097-17.76L-17.760000000000097-17.76L-17.760000000000097-12.77L-11.4200000000001-12.77Q-9.0700000000001-12.77 -8.2300000000001-13.34Q-7.3900000000001-13.92 -7.3900000000001-15.55L-7.3900000000001-15.55L-7.3900000000001-20.54L-13.780000000000099-20.54ZM 30.477999999999902-24.48Q 33.837999999999894-24.48  35.5679999999999-23.45Q 37.2979999999999-22.42  37.2979999999999-20.4L 37.2979999999999-20.4L 37.2979999999999 0L 32.497999999999905 0L 32.497999999999905-20.54L 27.4079999999999-20.54Q 25.297999999999902-20.54  24.4279999999999-20.11Q 23.567999999999902-19.68  23.3779999999999-18.53L 23.3779999999999-18.53L 23.3779999999999 0L 18.5779999999999 0L 18.5779999999999-20.54L 13.4879999999999-20.54Q 11.1379999999999-20.54  10.267999999999901-19.97Q 9.4079999999999-19.39  9.4079999999999-17.76L 9.4079999999999-17.76L 9.4079999999999 0L 4.607999999999901 0L 4.607999999999901-24L 6.817999999999901-24L 8.107999999999901-21.6Q 9.837999999999901-23.09  11.8779999999999-23.78Q 13.917999999999902-24.48  16.5579999999999-24.48L 16.5579999999999-24.48Q 21.5079999999999-24.48  22.8979999999999-22.27L 22.8979999999999-22.27Q 26.0179999999999-24.48  30.477999999999902-24.48L 30.477999999999902-24.48ZM 57.165999999999904-24.48Q 60.765999999999906-24.48  62.595999999999904-23.45Q 64.41599999999991-22.42  65.1159999999999-19.8Q 65.8059999999999-17.18  65.8059999999999-12L 65.8059999999999-12Q 65.8059999999999-6.77  65.0859999999999-4.1Q 64.3659999999999-1.44  62.54599999999991-0.36Q 60.71599999999991 0.72  57.165999999999904 0.72L 57.165999999999904 0.72Q 54.765999999999906 0.72  53.18599999999991 0.46Q 51.595999999999904 0.19  50.4959999999999-0.43L 50.4959999999999-0.43L 50.4959999999999 7.92L 45.695999999999906 8.5L 45.695999999999906-24L 47.905999999999906-24L 49.00599999999991-21.98Q 50.015999999999906-23.42  51.8859999999999-23.95Q 53.75599999999991-24.48  57.165999999999904-24.48L 57.165999999999904-24.48ZM 60.765999999999906-4.42L 60.765999999999906-20.54L 52.705999999999904-20.54Q 51.455999999999904-20.54  50.97599999999991-20.33Q 50.4959999999999-20.11  50.4959999999999-19.58L 50.4959999999999-19.58L 50.4959999999999-3.22L 58.555999999999905-3.22Q 59.85599999999991-3.22  60.3159999999999-3.46Q 60.765999999999906-3.7  60.765999999999906-4.42L 60.765999999999906-4.42ZM 75.2679999999999-24L 76.94799999999991-20.21Q 79.1079999999999-22.13  80.6379999999999-23.18Q 82.1779999999999-24.24  83.5179999999999-24.72L 83.5179999999999-24.72L 83.9979999999999-20.02Q 82.4179999999999-19.54  80.7079999999999-18.7Q 79.0079999999999-17.86  77.80799999999991-16.94L 77.80799999999991-16.94L 77.80799999999991 0L 73.0079999999999 0L 73.0079999999999-24L 75.2679999999999-24ZM 97.7799999999999-3.31Q 99.7399999999999-3.31  101.61999999999989-3.58Q 103.4899999999999-3.84  106.0799999999999-4.46L 106.0799999999999-4.46L 106.6999999999999-0.96Q 104.9299999999999-0.29  102.3099999999999 0.1Q 99.6999999999999 0.48  96.9099999999999 0.48L 96.9099999999999 0.48Q 93.1699999999999 0.48  91.1999999999999-0.6Q 89.2299999999999-1.68  88.4199999999999-4.32Q 87.5999999999999-6.96  87.5999999999999-12L 87.5999999999999-12Q 87.5999999999999-16.85  88.53999999999989-19.51Q 89.4699999999999-22.18  91.6299999999999-23.33Q 93.7899999999999-24.48  97.7299999999999-24.48L 97.7299999999999-24.48Q 101.61999999999989-24.48  103.6599999999999-23.86Q 105.6999999999999-23.23  106.5099999999999-21.72Q 107.3299999999999-20.21  107.3299999999999-17.28L 107.3299999999999-17.28Q 107.3299999999999-13.78  106.31999999999991-12.24Q 105.3099999999999-10.7  102.3599999999999-10.18Q 99.4099999999999-9.65  92.6399999999999-9.65L 92.6399999999999-9.65L 92.6399999999999-3.84Q 94.5599999999999-3.31  97.7799999999999-3.31L 97.7799999999999-3.31ZM 96.6199999999999-20.54Q 94.3199999999999-20.54  93.4799999999999-19.97Q 92.6399999999999-19.39  92.6399999999999-17.76L 92.6399999999999-17.76L 92.6399999999999-12.77L 98.9799999999999-12.77Q 101.3299999999999-12.77  102.1699999999999-13.34Q 103.0099999999999-13.92  103.0099999999999-15.55L 103.0099999999999-15.55L 103.0099999999999-20.54L 96.6199999999999-20.54ZM 137.51799999999992-20.26L 137.32799999999992-20.54L 125.94799999999991-20.54L 125.5679999999999-24L 143.4679999999999-24L 143.4679999999999-21.36L 130.5579999999999-3.74L 130.7079999999999-3.46L 143.2279999999999-3.46L 143.2279999999999 0L 124.6079999999999 0L 124.6079999999999-2.64L 137.51799999999992-20.26ZM 158.4519999999999-3.31Q 160.41199999999992-3.31  162.29199999999992-3.58Q 164.16199999999992-3.84  166.7519999999999-4.46L 166.7519999999999-4.46L 167.3719999999999-0.96Q 165.60199999999992-0.29  162.9819999999999 0.1Q 160.3719999999999 0.48  157.5819999999999 0.48L 157.5819999999999 0.48Q 153.8419999999999 0.48  151.8719999999999-0.6Q 149.9019999999999-1.68  149.0919999999999-4.32Q 148.2719999999999-6.96  148.2719999999999-12L 148.2719999999999-12Q 148.2719999999999-16.85  149.2119999999999-19.51Q 150.1419999999999-22.18  152.3019999999999-23.33Q 154.4619999999999-24.48  158.4019999999999-24.48L 158.4019999999999-24.48Q 162.29199999999992-24.48  164.3319999999999-23.86Q 166.3719999999999-23.23  167.1819999999999-21.72Q 168.0019999999999-20.21  168.0019999999999-17.28L 168.0019999999999-17.28Q 168.0019999999999-13.78  166.9919999999999-12.24Q 165.9819999999999-10.7  163.03199999999993-10.18Q 160.0819999999999-9.65  153.3119999999999-9.65L 153.3119999999999-9.65L 153.3119999999999-3.84Q 155.2319999999999-3.31  158.4519999999999-3.31L 158.4519999999999-3.31ZM 157.29199999999992-20.54Q 154.9919999999999-20.54  154.1519999999999-19.97Q 153.3119999999999-19.39  153.3119999999999-17.76L 153.3119999999999-17.76L 153.3119999999999-12.77L 159.6519999999999-12.77Q 162.0019999999999-12.77  162.8419999999999-13.34Q 163.6819999999999-13.92  163.6819999999999-15.55L 163.6819999999999-15.55L 163.6819999999999-20.54L 157.29199999999992-20.54ZM 177.9399999999999-24L 179.6199999999999-20.21Q 181.7799999999999-22.13  183.3099999999999-23.18Q 184.8499999999999-24.24  186.1899999999999-24.72L 186.1899999999999-24.72L 186.6699999999999-20.02Q 185.0899999999999-19.54  183.3799999999999-18.7Q 181.6799999999999-17.86  180.4799999999999-16.94L 180.4799999999999-16.94L 180.4799999999999 0L 175.6799999999999 0L 175.6799999999999-24L 177.9399999999999-24ZM 200.6419999999999-24.48Q 203.9519999999999-24.48  205.8719999999999-23.83Q 207.79199999999992-23.18  208.63199999999992-21.72Q 209.47199999999992-20.26  209.47199999999992-17.76L 209.47199999999992-17.76L 209.47199999999992 0L 207.26199999999992 0L 205.97199999999992-2.4Q 204.2419999999999-0.91  202.1519999999999-0.22Q 200.0619999999999 0.48  197.3719999999999 0.48L 197.3719999999999 0.48Q 193.3919999999999 0.48  191.7119999999999-1.18Q 190.0319999999999-2.83  190.0319999999999-6.72L 190.0319999999999-6.72Q 190.0319999999999-10.22  190.9919999999999-11.76Q 191.9519999999999-13.3  194.76199999999992-13.82Q 197.57199999999992-14.35  203.9519999999999-14.35L 203.9519999999999-14.35L 204.6719999999999-14.35L 204.6719999999999-20.16Q 202.8919999999999-20.69  199.82199999999992-20.69L 199.82199999999992-20.69Q 195.9819999999999-20.69  191.7119999999999-19.54L 191.7119999999999-19.54L 191.0919999999999-23.04Q 192.8619999999999-23.66  195.5019999999999-24.07Q 198.1419999999999-24.48  200.6419999999999-24.48L 200.6419999999999-24.48ZM 200.8319999999999-3.22Q 203.0919999999999-3.22  203.88199999999992-3.79Q 204.6719999999999-4.37  204.6719999999999-6L 204.6719999999999-6L 204.6719999999999-11.23L 198.29199999999992-11.23Q 196.03199999999993-11.23  195.2119999999999-10.66Q 194.4019999999999-10.08  194.4019999999999-8.45L 194.4019999999999-8.45L 194.4019999999999-3.22L 200.8319999999999-3.22ZM 231.7419999999999-31.92L 236.54199999999992-32.5L 236.54199999999992 0L 234.3319999999999 0L 233.2819999999999-1.92Q 232.32199999999992-0.43  230.5219999999999 0.14Q 228.7219999999999 0.72  225.5519999999999 0.72L 225.5519999999999 0.72Q 221.7119999999999 0.72  219.8119999999999-0.29Q 217.9219999999999-1.3  217.1719999999999-3.94Q 216.4319999999999-6.58  216.4319999999999-12L 216.4319999999999-12Q 216.4319999999999-17.09  217.1519999999999-19.73Q 217.8719999999999-22.37  219.6519999999999-23.42Q 221.4219999999999-24.48  224.88199999999992-24.48L 224.88199999999992-24.48Q 227.3319999999999-24.48  228.9819999999999-24.22Q 230.6419999999999-23.95  231.7419999999999-23.33L 231.7419999999999-23.33L 231.7419999999999-31.92ZM 231.7419999999999-4.42L 231.7419999999999-20.54L 223.6819999999999-20.54Q 222.38199999999992-20.54  221.9319999999999-20.3Q 221.4719999999999-20.06  221.4719999999999-19.34L 221.4719999999999-19.34L 221.4719999999999-3.22L 229.5319999999999-3.22Q 230.8319999999999-3.22  231.29199999999992-3.46Q 231.7419999999999-3.7  231.7419999999999-4.42L 231.7419999999999-4.42ZM 254.16399999999993 0.48Q 249.8439999999999 0.48  247.6539999999999-0.55Q 245.47399999999993-1.58  244.60399999999993-4.22Q 243.74399999999991-6.86  243.74399999999991-12L 243.74399999999991-12Q 243.74399999999991-17.14  244.60399999999993-19.78Q 245.47399999999993-22.42  247.6539999999999-23.45Q 249.8439999999999-24.48  254.16399999999993-24.48L 254.16399999999993-24.48Q 258.52399999999994-24.48  260.6839999999999-23.45Q 262.84399999999994-22.42  263.71399999999994-19.8Q 264.5739999999999-17.18  264.5739999999999-12L 264.5739999999999-12Q 264.5739999999999-6.86  263.71399999999994-4.22Q 262.84399999999994-1.58  260.66399999999993-0.55Q 258.4839999999999 0.48  254.16399999999993 0.48L 254.16399999999993 0.48ZM 248.73399999999992-3.46L 257.28399999999993-3.46Q 258.6739999999999-3.46  259.1239999999999-3.7Q 259.58399999999995-3.94  259.58399999999995-4.66L 259.58399999999995-4.66L 259.58399999999995-20.54L 251.04399999999993-20.54Q 249.64399999999992-20.54  249.19399999999993-20.3Q 248.73399999999992-20.06  248.73399999999992-19.34L 248.73399999999992-19.34L 248.73399999999992-3.46Z"></path></svg>